<svg width="24" height="24" viewBox="0 0 24 24" fill="none" xmlns="http://www.w3.org/2000/svg">
<g clip-path="url(#clip0)">
<path d="M23.9996 12.0733C23.9996 5.40429 18.6266 -0.00170898 11.9996 -0.00170898C5.36958 -0.000208984 -0.00341797 5.40429 -0.00341797 12.0748C-0.00341797 18.1003 4.38558 23.0953 10.1216 24.0013V15.5638H7.07658V12.0748H10.1246V9.41229C10.1246 6.38679 11.9171 4.71579 14.6576 4.71579C15.9716 4.71579 17.3441 4.95129 17.3441 4.95129V7.92129H15.8306C14.3411 7.92129 13.8761 8.85279 13.8761 9.80829V12.0733H17.2031L16.6721 15.5623H13.8746V23.9998C19.6106 23.0938 23.9996 18.0988 23.9996 12.0733Z" fill="#90BCB7"/>
</g>
<defs>
<clipPath id="clip0">
<rect width="24" height="24" fill="white"/>
</clipPath>
</defs>
</svg>
