<svg width="24" height="24" viewBox="0 0 24 24" fill="none" xmlns="http://www.w3.org/2000/svg">
<path d="M5.84292 4.56801C7.47586 2.93508 9.6906 2.0177 11.9999 2.0177C14.3092 2.0177 16.524 2.93508 18.1569 4.56801C19.7899 6.20095 20.7072 8.41569 20.7072 10.725C20.7072 13.0343 19.7899 15.2491 18.1569 16.882L16.9699 18.056C16.0949 18.914 14.9599 20.018 13.5639 21.368C13.1443 21.7737 12.5836 22.0005 11.9999 22.0005C11.4163 22.0005 10.8555 21.7737 10.4359 21.368L6.94492 17.972C6.50592 17.541 6.13892 17.178 5.84292 16.882C5.03434 16.0735 4.39293 15.1136 3.95532 14.0572C3.51771 13.0008 3.29248 11.8685 3.29248 10.725C3.29248 9.58154 3.51771 8.44927 3.95532 7.39284C4.39293 6.33642 5.03434 5.37654 5.84292 4.56801ZM17.0959 5.62801C15.7441 4.27647 13.9108 3.51729 11.9992 3.51747C10.0877 3.51766 8.25447 4.2772 6.90292 5.62901C5.55138 6.98082 4.7922 8.81416 4.79238 10.7257C4.79257 12.6373 5.55211 14.4705 6.90392 15.822L8.38992 17.29C9.4164 18.293 10.4457 19.293 11.4779 20.29C11.6178 20.4253 11.8048 20.501 11.9994 20.501C12.194 20.501 12.381 20.4253 12.5209 20.29L15.9149 16.99C16.3849 16.529 16.7779 16.14 17.0949 15.822C18.4464 14.4704 19.2057 12.6374 19.2057 10.726C19.2057 8.81466 18.4464 6.98158 17.0949 5.63001L17.0959 5.62801ZM11.9999 7.99901C12.3942 7.99901 12.7845 8.07666 13.1487 8.22753C13.513 8.37839 13.8439 8.59952 14.1227 8.87828C14.4014 9.15704 14.6225 9.48798 14.7734 9.8522C14.9243 10.2164 15.0019 10.6068 15.0019 11.001C15.0019 11.3952 14.9243 11.7856 14.7734 12.1498C14.6225 12.514 14.4014 12.845 14.1227 13.1237C13.8439 13.4025 13.513 13.6236 13.1487 13.7745C12.7845 13.9254 12.3942 14.003 11.9999 14.003C11.2134 13.9887 10.4639 13.6661 9.91269 13.1048C9.36152 12.5435 9.05271 11.7882 9.05271 11.0015C9.05271 10.2148 9.36152 9.45957 9.91269 8.89824C10.4639 8.33691 11.2134 8.01437 11.9999 8.00001V7.99901ZM11.9999 9.49901C11.8027 9.49901 11.6074 9.53786 11.4251 9.61335C11.2429 9.68883 11.0773 9.79947 10.9378 9.93894C10.7984 10.0784 10.6877 10.244 10.6123 10.4262C10.5368 10.6085 10.4979 10.8038 10.4979 11.001C10.4979 11.1983 10.5368 11.3936 10.6123 11.5758C10.6877 11.758 10.7984 11.9236 10.9378 12.0631C11.0773 12.2026 11.2429 12.3132 11.4251 12.3887C11.6074 12.4642 11.8027 12.503 11.9999 12.503C12.3981 12.503 12.7801 12.3448 13.0616 12.0632C13.3432 11.7816 13.5014 11.3997 13.5014 11.0015C13.5014 10.6033 13.3432 10.2214 13.0616 9.93979C12.7801 9.65821 12.3981 9.50001 11.9999 9.50001V9.49901Z" fill="black"/>
</svg>
