<svg width="24" height="24" viewBox="0 0 24 24" fill="none" xmlns="http://www.w3.org/2000/svg">
<path d="M7.05581 2.41805L8.22281 2.06705C8.86209 1.87428 9.54969 1.92068 10.1573 2.19761C10.7649 2.47454 11.2509 2.96308 11.5248 3.57205L12.4268 5.57805C12.6623 6.10186 12.7278 6.68623 12.6143 7.24919C12.5008 7.81215 12.2139 8.32544 11.7938 8.71705L10.2998 10.1101C10.2561 10.1508 10.2285 10.2057 10.2218 10.2651C10.1778 10.6621 10.4468 11.4351 11.0668 12.5101C11.5178 13.2911 11.9268 13.8401 12.2738 14.1471C12.5158 14.3621 12.6488 14.4081 12.7058 14.3921L14.7158 13.7771C15.2647 13.6092 15.8524 13.6172 16.3965 13.8001C16.9406 13.9831 17.4138 14.3317 17.7498 14.7971L19.0308 16.5731C19.4204 17.1131 19.6007 17.7762 19.5384 18.4392C19.476 19.1022 19.1752 19.7201 18.6918 20.1781L17.8058 21.0181C17.3356 21.4634 16.758 21.7793 16.1294 21.9351C15.5008 22.0909 14.8426 22.0812 14.2188 21.9071C11.4648 21.1381 8.99581 18.8141 6.78381 14.9831C4.56881 11.1471 3.7918 7.84305 4.5078 5.07005C4.66898 4.44639 4.98809 3.87476 5.43438 3.41025C5.88067 2.94575 6.43908 2.60404 7.05581 2.41805ZM7.48881 3.85505C7.11888 3.96651 6.78388 4.17134 6.51609 4.44982C6.24829 4.7283 6.05671 5.07105 5.95981 5.44505C5.35781 7.77705 6.04681 10.7061 8.08281 14.2331C10.1158 17.7551 12.3048 19.8151 14.6228 20.4631C14.9969 20.5673 15.3917 20.5728 15.7686 20.4793C16.1456 20.3857 16.4918 20.1961 16.7738 19.9291L17.6608 19.0891C17.8806 18.8808 18.0174 18.5999 18.0457 18.2985C18.074 17.997 17.992 17.6956 17.8148 17.4501L16.5348 15.6751C16.3821 15.4633 16.1668 15.3046 15.9193 15.2214C15.6718 15.1382 15.4045 15.1346 15.1548 15.2111L13.1398 15.8281C11.9698 16.1761 10.9078 15.2351 9.76781 13.2601C8.9998 11.9301 8.64181 10.9001 8.73081 10.0991C8.77781 9.68305 8.97081 9.29905 9.27681 9.01305L10.7708 7.62005C10.9618 7.44207 11.0923 7.20874 11.144 6.95281C11.1956 6.69688 11.1658 6.43119 11.0588 6.19305L10.1568 4.18705C10.0323 3.91046 9.81152 3.68857 9.53555 3.56272C9.25958 3.43688 8.94726 3.41567 8.65681 3.50305L7.48881 3.85505Z" fill="black"/>
</svg>
