<svg width="168" height="24" viewBox="0 0 168 24" fill="none" xmlns="http://www.w3.org/2000/svg">
<path d="M0 1.719C0 0.7695 0.789 0 1.7625 0H22.2375C23.211 0 24 0.7695 24 1.719V22.281C24 23.2305 23.211 24 22.2375 24H1.7625C0.789 24 0 23.2305 0 22.281V1.719ZM7.4145 20.091V9.2535H3.813V20.091H7.4145ZM5.6145 7.773C6.87 7.773 7.6515 6.942 7.6515 5.901C7.629 4.8375 6.8715 4.029 5.6385 4.029C4.4055 4.029 3.6 4.839 3.6 5.901C3.6 6.942 4.3815 7.773 5.5905 7.773H5.6145ZM12.9765 20.091V14.0385C12.9765 13.7145 13.0005 13.3905 13.0965 13.1595C13.356 12.513 13.9485 11.8425 14.9445 11.8425C16.248 11.8425 16.7685 12.8355 16.7685 14.2935V20.091H20.37V13.875C20.37 10.545 18.594 8.997 16.224 8.997C14.313 8.997 13.4565 10.047 12.9765 10.7865V10.824H12.9525C12.9605 10.8115 12.9685 10.799 12.9765 10.7865V9.2535H9.3765C9.4215 10.2705 9.3765 20.091 9.3765 20.091H12.9765Z" fill="#90BCB7"/>
<g clip-path="url(#clip0)">
<path d="M71.9996 12.0733C71.9996 5.40429 66.6266 -0.00170898 59.9996 -0.00170898C53.3696 -0.000208984 47.9966 5.40429 47.9966 12.0748C47.9966 18.1003 52.3856 23.0953 58.1216 24.0013V15.5638H55.0766V12.0748H58.1246V9.41229C58.1246 6.38679 59.9171 4.71579 62.6576 4.71579C63.9716 4.71579 65.3441 4.95129 65.3441 4.95129V7.92129H63.8306C62.3411 7.92129 61.8761 8.85279 61.8761 9.80829V12.0733H65.2031L64.6721 15.5623H61.8746V23.9998C67.6106 23.0938 71.9996 18.0988 71.9996 12.0733Z" fill="#90BCB7"/>
</g>
<path d="M103.539 22.5001C112.596 22.5001 117.55 14.9956 117.55 8.49906C117.55 8.28906 117.551 8.07606 117.542 7.86606C118.506 7.16779 119.339 6.30329 120 5.31306C119.099 5.71034 118.144 5.97217 117.167 6.09006C118.196 5.47452 118.968 4.50602 119.337 3.36456C118.369 3.93775 117.311 4.34012 116.206 4.55406C115.464 3.7636 114.482 3.23994 113.412 3.0642C112.342 2.88846 111.244 3.07045 110.288 3.58197C109.332 4.09349 108.571 4.90601 108.124 5.89365C107.676 6.8813 107.567 7.98896 107.812 9.04506C105.855 8.94689 103.939 8.43826 102.191 7.55218C100.442 6.66609 98.899 5.42233 97.662 3.90156C97.034 4.98619 96.8424 6.26916 97.126 7.48996C97.4096 8.71076 98.1472 9.77786 99.189 10.4746C98.4083 10.448 97.6448 10.2384 96.96 9.86256V9.93006C96.9613 11.0663 97.355 12.1672 98.0743 13.0467C98.7937 13.9262 99.7946 14.5304 100.908 14.7571C100.485 14.8735 100.049 14.9315 99.6105 14.9296C99.3015 14.9305 98.9931 14.9019 98.6895 14.8441C99.0042 15.8221 99.6169 16.6773 100.442 17.2898C101.267 17.9022 102.263 18.2413 103.29 18.2596C101.545 19.6303 99.3891 20.3737 97.17 20.3701C96.779 20.3717 96.3882 20.3492 96 20.3026C98.2523 21.7385 100.868 22.5009 103.539 22.5001Z" fill="#90BCB7"/>
<path d="M149.786 0L145.5 4.2855V19.7145H150.643V24L154.929 19.7145H158.355L166.071 12V0H149.786ZM164.357 11.1435L160.929 14.571H157.5L154.5 17.571V14.571H150.643V1.7145H164.357V11.1435Z" fill="#90BCB7"/>
<path d="M161.785 4.7146H160.071V9.8551H161.785V4.7146ZM157.071 4.7146H155.356V9.8551H157.071V4.7146Z" fill="#90BCB7"/>
<defs>
<clipPath id="clip0">
<rect width="24" height="24" fill="white" transform="translate(48)"/>
</clipPath>
</defs>
</svg>
